<svg width="1440" height="2920" viewBox="0 0 1440 2920" fill="none" xmlns="http://www.w3.org/2000/svg">
<g clip-path="url(#clip0_85_607)">
<rect width="1440" height="2920" fill="#E1ECEF"/>
<g filter="url(#filter0_f_85_607)">
<path d="M660 2920C660 3200.57 437.276 3426 165 3426C-107.276 3426 -330 3200.57 -330 2920C-330 2639.43 -107.276 2414 165 2414C437.276 2414 660 2639.43 660 2920Z" stroke="#EEF4F5" stroke-width="120"/>
</g>
<g filter="url(#filter1_f_85_607)">
<path d="M660 0C660 280.572 437.276 506 165 506C-107.276 506 -330 280.572 -330 0C-330 -280.572 -107.276 -506 165 -506C437.276 -506 660 -280.572 660 0Z" stroke="#EEF4F5" stroke-width="120"/>
</g>
<g filter="url(#filter2_f_85_607)">
<path d="M1770 1460C1770 1740.57 1547.28 1966 1275 1966C1002.72 1966 780 1740.57 780 1460C780 1179.43 1002.72 954 1275 954C1547.28 954 1770 1179.43 1770 1460Z" stroke="#EEF4F5" stroke-width="120"/>
</g>
</g>
<defs>
<filter id="filter0_f_85_607" x="-402" y="2342" width="1134" height="1156" filterUnits="userSpaceOnUse" color-interpolation-filters="sRGB">
<feFlood flood-opacity="0" result="BackgroundImageFix"/>
<feBlend mode="normal" in="SourceGraphic" in2="BackgroundImageFix" result="shape"/>
<feGaussianBlur stdDeviation="6" result="effect1_foregroundBlur_85_607"/>
</filter>
<filter id="filter1_f_85_607" x="-402" y="-578" width="1134" height="1156" filterUnits="userSpaceOnUse" color-interpolation-filters="sRGB">
<feFlood flood-opacity="0" result="BackgroundImageFix"/>
<feBlend mode="normal" in="SourceGraphic" in2="BackgroundImageFix" result="shape"/>
<feGaussianBlur stdDeviation="6" result="effect1_foregroundBlur_85_607"/>
</filter>
<filter id="filter2_f_85_607" x="708" y="882" width="1134" height="1156" filterUnits="userSpaceOnUse" color-interpolation-filters="sRGB">
<feFlood flood-opacity="0" result="BackgroundImageFix"/>
<feBlend mode="normal" in="SourceGraphic" in2="BackgroundImageFix" result="shape"/>
<feGaussianBlur stdDeviation="6" result="effect1_foregroundBlur_85_607"/>
</filter>
<clipPath id="clip0_85_607">
<rect width="1440" height="2920" fill="white"/>
</clipPath>
</defs>
</svg>
